:version 1.10
:name ASF
:units
  mass 1
  length 1
  angle deg
:documentation
  ASF file generated by Kaydara
:root
  axis xyz
  order  tx ty tz rx ry rz
  position 0 0 0
  orientation 0 0 0
:bonedata
  begin
    id 1
    name lfemurDummy
    direction 0.61522 -0.761478 0.204097
    length 5.68318
    axis 0 -0 0 xyz
  end
  begin
    id 2
    name lfemur
    direction 0.34202 -0.939693 -5.84747e-008
    length 16.9147
    axis 0 -0 20 xyz
    dof rx ry rz
    limits( -inf , inf )
( -inf , inf )
( -inf , inf )

  end
  begin
    id 3
    name ltibia
    direction 0.34202 -0.939693 1.20839e-009
    length 18.0532
    axis 0 -0 20 xyz
    dof rz ry rx
    limits( -inf , inf )
( -inf , inf )
( -inf , inf )

  end
  begin
    id 4
    name lfoot
    direction 0.0841971 -0.23133 0.969225
    length 5.23822
    axis -90 7.62852e-016 20 xyz
    dof ry rx rz
    limits( -inf , inf )
( -inf , inf )
( -inf , inf )

  end
  begin
    id 5
    name ltoes
    direction 0 0 0
    length 0
    axis 0 0 0 xyz
    dof rz ry rx
    limits( -inf , inf )
( -inf , inf )
( -inf , inf )

  end
  begin
    id 6
    name rfemurDummy
    direction -0.625247 -0.75382 0.202044
    length 5.74091
    axis 0 -0 0 xyz
  end
  begin
    id 7
    name rfemur
    direction -0.34202 -0.939693 -1.47013e-008
    length 16.4922
    axis 0 -0 -20 xyz
    dof rx ry rz
    limits( -inf , inf )
( -inf , inf )
( -inf , inf )

  end
  begin
    id 8
    name rtibia
    direction -0.34202 -0.939693 -7.74345e-010
    length 18.2421
    axis 0 -0 -20 xyz
    dof rz ry rx
    limits( -inf , inf )
( -inf , inf )
( -inf , inf )

  end
  begin
    id 9
    name rfoot
    direction -0.124331 -0.341598 0.931586
    length 5.45787
    axis -90 -7.62852e-016 -20 xyz
    dof ry rx rz
    limits( -inf , inf )
( -inf , inf )
( -inf , inf )

  end
  begin
    id 10
    name rtoes
    direction 0 0 0
    length 0
    axis 0 0 0 xyz
    dof rz ry rx
    limits( -inf , inf )
( -inf , inf )
( -inf , inf )

  end
  begin
    id 11
    name lowerbackDummy
    direction 0 0 0
    length 0
    axis 0 -0 0 xyz
  end
  begin
    id 12
    name lowerback
    direction -0.0218484 0.994884 -0.0986304
    length 4.45607
    axis 0 -0 0 xyz
    dof rx ry rz
    limits( -inf , inf )
( -inf , inf )
( -inf , inf )

  end
  begin
    id 13
    name upperback
    direction -0.00973057 0.999717 -0.0217111
    length 4.47449
    axis 0 -0 0 xyz
    dof rx ry rz
    limits( -inf , inf )
( -inf , inf )
( -inf , inf )

  end
  begin
    id 14
    name thorax
    direction -0.000928171 0.999699 0.0245198
    length 4.50973
    axis 0 -0 0 xyz
    dof rx ry rz
    limits( -inf , inf )
( -inf , inf )
( -inf , inf )

  end
  begin
    id 15
    name rclavicle
    direction -0.9009 0.425937 -0.0834055
    length 7.28587
    axis 0 -0 0 xyz
    dof rx ry rz
    limits( -inf , inf )
( -inf , inf )
( -inf , inf )

  end
  begin
    id 16
    name rhumerus
    direction -1 -2.23604e-007 -1.42637e-007
    length 13.5704
    axis 180 30 90 xyz
    dof rx ry rz
    limits( -inf , inf )
( -inf , inf )
( -inf , inf )

  end
  begin
    id 17
    name rradius
    direction -1 5.68281e-008 -4.4952e-007
    length 8.06782
    axis 180 30 90 xyz
    dof rz ry rx
    limits( -inf , inf )
( -inf , inf )
( -inf , inf )

  end
  begin
    id 18
    name rwrist
    direction -1 1.51393e-007 1.38143e-007
    length 4.03391
    axis -90 -90 0 xyz
    dof rz rx ry
    limits( -inf , inf )
( -inf , inf )
( -inf , inf )

  end
  begin
    id 19
    name rthumb
    direction 0 0 0
    length 0
    axis 0 0 0 xyz
    dof ry rx rz
    limits( -inf , inf )
( -inf , inf )
( -inf , inf )

  end
  begin
    id 20
    name rhand
    direction -1 -3.34077e-007 -5.59631e-007
    length 1.29744
    axis -90 -90 0 xyz
    dof ry rx rz
    limits( -inf , inf )
( -inf , inf )
( -inf , inf )

  end
  begin
    id 21
    name rfingers
    direction 0 0 0
    length 0
    axis 0 0 0 xyz
    dof rz ry rx
    limits( -inf , inf )
( -inf , inf )
( -inf , inf )

  end
  begin
    id 22
    name lclavicle
    direction 0.940017 0.332249 -0.0773232
    length 8.29589
    axis 0 -0 0 xyz
    dof rx ry rz
    limits( -inf , inf )
( -inf , inf )
( -inf , inf )

  end
  begin
    id 23
    name lhumerus
    direction 1 7.41158e-008 -1.44768e-008
    length 12.0042
    axis 180 -30 -90 xyz
    dof rx ry rz
    limits( -inf , inf )
( -inf , inf )
( -inf , inf )

  end
  begin
    id 24
    name lradius
    direction 1 -1.32972e-007 3.10821e-007
    length 8.1902
    axis 180 -30 -90 xyz
    dof rz ry rx
    limits( -inf , inf )
( -inf , inf )
( -inf , inf )

  end
  begin
    id 25
    name lwrist
    direction 1 3.08957e-007 4.01394e-007
    length 4.09509
    axis -90 90 0 xyz
    dof rz rx ry
    limits( -inf , inf )
( -inf , inf )
( -inf , inf )

  end
  begin
    id 26
    name lthumb
    direction 0 0 0
    length 0
    axis 0 0 0 xyz
    dof ry rx rz
    limits( -inf , inf )
( -inf , inf )
( -inf , inf )

  end
  begin
    id 27
    name lhand
    direction 1 -1.64125e-007 -6.99514e-007
    length 1.37229
    axis -90 90 0 xyz
    dof ry rx rz
    limits( -inf , inf )
( -inf , inf )
( -inf , inf )

  end
  begin
    id 28
    name lfingers
    direction 0 0 0
    length 0
    axis 0 0 0 xyz
    dof rz ry rx
    limits( -inf , inf )
( -inf , inf )
( -inf , inf )

  end
  begin
    id 29
    name lowerneck
    direction -0.030798 0.998024 0.0547665
    length 3.93918
    axis 0 -0 0 xyz
    dof rx ry rz
    limits( -inf , inf )
( -inf , inf )
( -inf , inf )

  end
  begin
    id 30
    name upperneck
    direction 0.0531588 0.996611 -0.0627736
    length 3.95491
    axis 0 -0 0 xyz
    dof rx ry rz
    limits( -inf , inf )
( -inf , inf )
( -inf , inf )

  end
  begin
    id 31
    name head
    direction 0 0 0
    length 0
    axis 0 0 0 xyz
    dof rx ry rz
    limits( -inf , inf )
( -inf , inf )
( -inf , inf )

  end
:hierarchy
  begin
    root lfemurDummy rfemurDummy lowerbackDummy
    lfemurDummy lfemur
    lfemur ltibia
    ltibia lfoot
    lfoot ltoes
    rfemurDummy rfemur
    rfemur rtibia
    rtibia rfoot
    rfoot rtoes
    lowerbackDummy lowerback
    lowerback upperback
    upperback thorax
    thorax rclavicle lclavicle lowerneck
    rclavicle rhumerus
    rhumerus rradius
    rradius rwrist
    rwrist rthumb rhand
    rhand rfingers
    lclavicle lhumerus
    lhumerus lradius
    lradius lwrist
    lwrist lthumb lhand
    lhand lfingers
    lowerneck upperneck
    upperneck head
  end

:SAMPLES-PER-SECOND 30
:FULLY-SPECIFIED
:DEGREES
74
root  4.359466823 40.16844381 1.746046637 -5.349975586 -35.852005 5.887023926
lowerback  10.89430046 1.220989943 -0.972687006
upperback  3.333570004 1.522959948 1.591920018
thorax  -2.699340105 0.7363039851 2.002340078
lowerneck  -5.157849789 6.707240105 -1.97566998
upperneck  13.82310009 8.911439896 2.336019993
head  4.797709942 4.393899918 1.525640011
lclavicle  0 -9.442270133e-015 7.951389973e-016
lhumerus  4.506810188 -21.0678997 81.24649811
lradius  2.562829394e-031 -2.429145845e-031 136.5339966
lwrist  -7.062250077e-031 -0 1.868950009
lhand  -1.496451383e-031 -27.76390076 20.11240005
lfingers  90 7.125020027 -90
lthumb  89.89689403 5.08795885 91.16245106
rclavicle  0 -9.442270133e-015 7.951389973e-016
rhumerus  6.529570103 24.7852993 -81.21559906
rradius  -2.622982318e-031 2.364065946e-031 137.9720001
rwrist  7.062250077e-031 1.765562519e-031 -10.41829967
rhand  -7.920061211e-032 -33.2840004 9.303460121
rfingers  -90 -7.125020027 -90
rthumb  -92.93752616 -24.25625642 -97.11982154
rfemur  -15.55620003 8.581769943 6.094359875
rtibia  -0 0 61.12519836
rfoot  -4.695682354e-032 -19.9496994 -5.838260174
rtoes  5.373923086 19.29304026 -105.8922705
lfemur  -23.7215004 5.212820053 -15.19439983
ltibia  -0 0 55.61050034
lfoot  4.426689416e-032 -4.35532999 -5.874360085
ltoes  -4.250644065 -19.5611806 -102.515957
75
root  4.376155373 40.15533267 1.779842189 -5.695007324 -36.98699951 6.137023926
lowerback  10.78390026 1.378819942 -1.283059955
upperback  3.292320013 1.689170003 1.243090034
thorax  -2.687000036 0.8203909993 1.794479966
lowerneck  -5.681879997 6.786570072 -2.249569893
upperneck  13.93830013 9.017970085 2.655499935
head  4.890180111 4.4520998 1.694339991
lclavicle  0 -9.442270133e-015 7.951389973e-016
lhumerus  4.68941021 -20.66640091 80.83370209
lradius  2.563380504e-031 -2.428564273e-031 136.5469971
lwrist  -1.059337512e-030 -0 1.678380013
lhand  -1.496451383e-031 -27.76390076 20.11240005
lfingers  90 7.125020027 -90
lthumb  89.89689403 5.08795885 91.16245106
rclavicle  0 -9.442270133e-015 7.951389973e-016
rhumerus  6.87074995 25.18860054 -80.93489838
rradius  -2.628709519e-031 2.357695973e-031 138.1109924
rwrist  7.062250077e-031 -1.765562519e-031 -10.06289959
rhand  -7.920061211e-032 -33.2840004 9.303460121
rfingers  -90 -7.125020027 -90
rthumb  -92.93752616 -24.25625642 -97.11982154
rfemur  -15.27110004 7.557040215 6.574359894
rtibia  -0 0 62.46580124
rfoot  -4.674507303e-032 -19.22190094 -5.090209961
rtoes  5.373923086 19.29304026 -105.8922705
lfemur  -23.13349915 5.453660011 -15.98719978
ltibia  -0 0 55.62639999
lfoot  4.431162577e-032 -5.058169842 -5.382339954
ltoes  -4.250644065 -19.5611806 -102.515957
76
root  4.388689056 40.10666675 1.801913367 -6.156005859 -38.53599548 6.37298584
lowerback  10.88519955 1.664549947 -1.623999953
upperback  3.172310114 2.02241993 0.9942780137
thorax  -2.883589983 0.9893990159 1.679909945
lowerneck  -5.945300102 6.920979977 -2.607690096
upperneck  13.98480034 9.21257019 2.908989906
head  4.913990021 4.545909882 1.84829998
lclavicle  0 -9.442270133e-015 7.951389973e-016
lhumerus  4.498779774 -20.30940056 80.57250214
lradius  2.565329677e-031 -2.426505241e-031 136.5930023
lwrist  -7.062250077e-031 -3.531125038e-031 1.156530023
lhand  -1.496451383e-031 -27.76390076 20.11240005
lfingers  90 7.125020027 -90
lthumb  89.89689403 5.08795885 91.16245106
rclavicle  0 -9.442270133e-015 7.951389973e-016
rhumerus  7.06885004 25.84760094 -80.72579956
rradius  -2.631711849e-031 2.354344235e-031 138.1840057
rwrist  7.062250077e-031 -0 -9.511630058
rhand  -7.920061211e-032 -33.2840004 9.303460121
rfingers  -90 -7.125020027 -90
rthumb  -92.93752616 -24.25625642 -97.11982154
rfemur  -14.88759995 7.085209846 7.100699902
rtibia  -0 0 63.41659927
rfoot  -4.641013618e-032 -17.99839973 -4.936999798
rtoes  5.373923086 19.29304026 -105.8922705
lfemur  -22.35950089 6.088190079 -16.65870094
ltibia  -0 0 55.59859848
lfoot  8.884189554e-032 -6.458169937 -4.533090115
ltoes  -4.250644065 -19.5611806 -102.515957
77
root  4.416266764 40.0277776 1.833075613 -6.46697998 -39.852005 6.473999023
lowerback  10.95499992 1.834200025 -1.738489985
upperback  2.98567009 2.229320049 0.8322899938
thorax  -3.122639894 1.096459985 1.543009996
lowerneck  -6.255539894 7.110839844 -2.968830109
upperneck  14.13549995 9.50028038 3.058809996
head  4.979119778 4.677279949 1.981570005
lclavicle  0 -9.442270133e-015 7.951389973e-016
lhumerus  3.949470043 -19.72360039 80.52549744
lradius  2.568334556e-031 -2.423324503e-031 136.6640015
lwrist  -7.062250077e-031 -0 0.8771470189
lhand  -1.496451383e-031 -27.76390076 20.11240005
lfingers  90 7.125020027 -90
lthumb  89.89689403 5.08795885 91.16245106
rclavicle  0 -9.442270133e-015 7.951389973e-016
rhumerus  7.167280197 26.6406002 -80.55310059
rradius  -2.637333526e-031 2.348045125e-031 138.3209991
rwrist  7.062250077e-031 -0 -9.017580032
rhand  -7.920061211e-032 -33.2840004 9.303460121
rfingers  -90 -7.125020027 -90
rthumb  -92.93752616 -24.25625642 -97.11982154
rfemur  -14.25279999 6.639210224 7.678140163
rtibia  -0 0 63.79679871
rfoot  -4.603990837e-032 -16.52149963 -4.910099983
rtoes  5.373923086 19.29304026 -105.8922705
lfemur  -21.77269936 6.524509907 -17.23920059
ltibia  -0 0 55.6427002
lfoot  4.467746222e-032 -8.903949738 -0.5796530247
ltoes  -4.250644065 -19.5611806 -102.515957
78
root  4.446511006 39.95466758 1.88895999 -6.625976562 -40.94900513 6.393981934
lowerback  10.91909981 1.94551003 -1.630859971
upperback  2.85732007 2.38744998 0.7564589977
thorax  -3.235470057 1.17663002 1.380679965
lowerneck  -6.745699883 7.285260201 -3.212879896
upperneck  14.3441 9.79761982 2.963390112
head  5.110300064 4.801889896 2.033979893
lclavicle  0 -9.442270133e-015 7.951389973e-016
lhumerus  3.332799911 -19.04980087 80.61029816
lradius  2.573108526e-031 -2.418254856e-031 136.7769928
lwrist  -7.062250077e-031 -3.531125038e-031 0.9176470041
lhand  -1.496451383e-031 -27.76390076 20.11240005
lfingers  90 7.125020027 -90
lthumb  89.89689403 5.08795885 91.16245106
rclavicle  0 -9.442270133e-015 7.951389973e-016
rhumerus  7.359129906 27.41519928 -80.31900024
rradius  -2.639627198e-031 2.345466327e-031 138.3769989
rwrist  0 -0 -8.348349571
rhand  -7.920061211e-032 -33.2840004 9.303460121
rfingers  -90 -7.125020027 -90
rthumb  -92.93752616 -24.25625642 -97.11982154
rfemur  -13.24330044 6.277629852 8.376879692
rtibia  -0 0 63.40299988
rfoot  -4.562277601e-032 -14.65229988 -4.89854002
rtoes  5.373923086 19.29304026 -105.8922705
lfemur  -21.32740021 6.772339821 -17.64970016
ltibia  -0 0 55.8125
lfoot  4.495540686e-032 -10.93560028 2.150490046
ltoes  -4.250644065 -19.5611806 -102.515957
79
root  4.461910969 39.8862223 1.969106742 -6.906005859 -42.10699463 6.49798584
lowerback  10.70940018 2.157759905 -1.62263
upperback  2.81437993 2.671439886 0.6964240074
thorax  -3.172240019 1.317759991 1.28094995
lowerneck  -7.12567997 7.418270111 -3.358069897
upperneck  14.42850018 10.05379963 2.675420046
head  5.201630116 4.898880005 2.003040075
lclavicle  0 -9.442270133e-015 7.951389973e-016
lhumerus  2.678730011 -18.65579987 80.80999756
lradius  2.577999734e-031 -2.413039869e-031 136.8930054
lwrist  -1.412450015e-030 -0 0.6675890088
lhand  -1.496451383e-031 -27.76390076 20.11240005
lfingers  90 7.125020027 -90
lthumb  89.89689403 5.08795885 91.16245106
rclavicle  0 -9.442270133e-015 7.951389973e-016
rhumerus  7.517829895 28.08049965 -79.97899628
rradius  -2.637456711e-031 2.347906756e-031 138.3240051
rwrist  7.062250077e-031 1.765562519e-031 -7.360889912
rhand  -7.920061211e-032 -33.2840004 9.303460121
rfingers  -90 -7.125020027 -90
rthumb  -92.93752616 -24.25625642 -97.11982154
rfemur  -11.91479969 6.17952013 8.893110275
rtibia  -0 0 62.20429993
rfoot  -4.538036577e-032 -13.43190002 -4.661799908
rtoes  5.373923086 19.29304026 -105.8922705
lfemur  -20.90780067 7.256360054 -18.05620003
ltibia  -0 0 56.12720108
lfoot  4.521492324e-032 -12.52390003 3.216310024
ltoes  -4.250644065 -19.5611806 -102.515957
80
root  4.462377668 39.80755543 2.0622933 -7.026977539 -43.25500488 6.560974121
lowerback  10.24030018 2.385270119 -1.587849975
upperback  2.771610022 2.985090017 0.6653950214
thorax  -2.966480017 1.473449945 1.204390049
lowerneck  -7.475520134 7.535449982 -3.314290047
upperneck  14.49380016 10.28380013 2.258820057
head  5.300610065 4.982890129 1.901829958
lclavicle  0 -9.442270133e-015 7.951389973e-016
lhumerus  1.917289972 -18.39760017 81.0734024
lradius  2.582795727e-031 -2.407905785e-031 137.0070038
lwrist  -7.062250077e-031 -3.531125038e-031 0.3209320009
lhand  -1.496451383e-031 -27.76390076 20.11240005
lfingers  90 7.125020027 -90
lthumb  89.89689403 5.08795885 91.16245106
rclavicle  0 -9.442270133e-015 7.951389973e-016
rhumerus  7.584119797 28.60499954 -79.74500275
rradius  -2.636513568e-031 2.348965782e-031 138.3009949
rwrist  7.062250077e-031 -0 -6.641359806
rhand  -7.920061211e-032 -33.2840004 9.303460121
rfingers  -90 -7.125020027 -90
rthumb  -92.93752616 -24.25625642 -97.11982154
rfemur  -10.35980034 6.286409855 9.409549713
rtibia  -0 0 60.33950043
rfoot  -4.530487099e-032 -13.02610016 -3.427010059
rtoes  5.373923086 19.29304026 -105.8922705
lfemur  -20.71240044 7.948339939 -18.2465992
ltibia  -0 0 56.61589813
lfoot  4.543288968e-032 -13.70650005 3.72371006
ltoes  -4.250644065 -19.5611806 -102.515957
81
root  4.459933409 39.71977835 2.157508858 -6.900024414 -44.3710022 6.45098877
lowerback  9.692480087 2.597790003 -1.441390038
upperback  2.676719904 3.293639898 0.683134973
thorax  -2.7667799 1.627390027 1.12263
lowerneck  -7.931769848 7.664040089 -3.192359924
upperneck  14.71450043 10.51910019 1.889559984
head  5.468410015 5.07201004 1.814249992
lclavicle  0 -9.442270133e-015 7.951389973e-016
lhumerus  1.001230001 -18.14749908 81.30500031
lradius  2.588545608e-031 -2.401723479e-031 137.1439972
lwrist  -7.062250077e-031 -3.531125038e-031 0.1815810055
lhand  -1.496451383e-031 -27.76390076 20.11240005
lfingers  90 7.125020027 -90
lthumb  89.89689403 5.08795885 91.16245106
rclavicle  0 -9.442270133e-015 7.951389973e-016
rhumerus  7.607600212 29.03549957 -79.61090088
rradius  -2.637333526e-031 2.348045125e-031 138.3209991
rwrist  7.062250077e-031 -1.765562519e-031 -6.238649845
rhand  -7.920061211e-032 -33.2840004 9.303460121
rfingers  -90 -7.125020027 -90
rthumb  -92.93752616 -24.25625642 -97.11982154
rfemur  -8.649499893 6.4145298 10.01760006
rtibia  -0 0 58.08649826
rfoot  -4.642696107e-032 -18.06220055 -4.270289898
rtoes  5.373923086 19.29304026 -105.8922705
lfemur  -20.77659988 8.543000221 -18.13829994
ltibia  -0 0 57.2405014
lfoot  4.557672173e-032 -14.42920017 4.273980141
ltoes  -4.250644065 -19.5611806 -102.515957
